<svg xmlns="http://www.w3.org/2000/svg" version="1.1" viewBox="-5.0 -10.0 110.0 135.0">
 <g>
  <path d="m20.816 1.5625h-4.1875c-0.86328 0-1.5625 0.69922-1.5625 1.5625v4.1875c0 0.86328 0.69922 1.5625 1.5625 1.5625 0.86328 0 1.5625-0.69922 1.5625-1.5625v-2.625h2.625c0.86328 0 1.5625-0.69922 1.5625-1.5625s-0.69922-1.5625-1.5625-1.5625z"/>
  <path d="m16.629 20.188c0.86328 0 1.5625-0.69922 1.5625-1.5625v-4.1875c0-0.86328-0.69922-1.5625-1.5625-1.5625-0.86328 0-1.5625 0.69922-1.5625 1.5625v4.1875c0 0.86719 0.69922 1.5625 1.5625 1.5625z"/>
  <path d="m20.816 39.703h-2.625v-2.625c0-0.86328-0.69922-1.5625-1.5625-1.5625-0.86328 0-1.5625 0.69922-1.5625 1.5625v4.1875c0 0.86328 0.69922 1.5625 1.5625 1.5625h4.1875c0.86328 0 1.5625-0.69922 1.5625-1.5625s-0.69922-1.5625-1.5625-1.5625z"/>
  <path d="m16.629 31.508c0.86328 0 1.5625-0.69922 1.5625-1.5625v-4.1875c0-0.86328-0.69922-1.5625-1.5625-1.5625-0.86328 0-1.5625 0.69922-1.5625 1.5625v4.1875c0 0.86328 0.69922 1.5625 1.5625 1.5625z"/>
  <path d="m32.129 1.5625h-4.1875c-0.86328 0-1.5625 0.69922-1.5625 1.5625s0.69922 1.5625 1.5625 1.5625h4.1875c0.86328 0 1.5625-0.69922 1.5625-1.5625s-0.69922-1.5625-1.5625-1.5625z"/>
  <path d="m39.262 4.6875h4.1875c0.86328 0 1.5625-0.69922 1.5625-1.5625s-0.69922-1.5625-1.5625-1.5625h-4.1875c-0.86328 0-1.5625 0.69922-1.5625 1.5625s0.69922 1.5625 1.5625 1.5625z"/>
  <path d="m50.582 4.6875h2.625v2.625c0 0.86328 0.69922 1.5625 1.5625 1.5625s1.5625-0.69922 1.5625-1.5625v-4.1875c0-0.86328-0.69922-1.5625-1.5625-1.5625h-4.1875c-0.86328 0-1.5625 0.69922-1.5625 1.5625s0.69922 1.5625 1.5625 1.5625z"/>
  <path d="m54.77 12.875c-0.86328 0-1.5625 0.69922-1.5625 1.5625v4.1875c0 0.86328 0.69922 1.5625 1.5625 1.5625s1.5625-0.69922 1.5625-1.5625v-4.1875c0-0.86328-0.69922-1.5625-1.5625-1.5625z"/>
  <path d="m32.129 39.703h-4.1875c-0.86328 0-1.5625 0.69922-1.5625 1.5625s0.69922 1.5625 1.5625 1.5625h4.1875c0.86328 0 1.5625-0.69922 1.5625-1.5625s-0.69922-1.5625-1.5625-1.5625z"/>
  <path d="m45.012 41.266c0-0.86328-0.69922-1.5625-1.5625-1.5625h-4.1875c-0.86328 0-1.5625 0.69922-1.5625 1.5625s0.69922 1.5625 1.5625 1.5625h4.1875c0.86328 0 1.5625-0.69922 1.5625-1.5625z"/>
  <path d="m84.137 54.617c-0.42969-0.42969-1.0156-0.66797-1.6523-0.66797-1.1289 0-2.4492 0.77344-2.4492 2.9609v3.2383c0 0.94531-0.76562 1.7148-1.7148 1.7148-0.94922 0-1.7148-0.76562-1.7148-1.7148v-8.8828c0-0.95312-0.30078-1.6992-0.89062-2.2188-0.53516-0.47266-1.3008-0.74219-2.1094-0.74219-1.3828 0-3 0.77734-3 2.9609v3.2383c0 0.94531-0.76562 1.7148-1.7148 1.7148s-1.7148-0.76562-1.7148-1.7148v-8.1523c0-2.1875-1.6133-2.9609-2.9961-2.9609-1.3828 0-2.9961 0.77734-2.9961 2.9609v7.4844c0 0.94531-0.76562 1.7148-1.7148 1.7148-0.94531 0-1.7148-0.76562-1.7148-1.7148l0.003906-23.16c0-0.95312-0.29687-1.7031-0.89062-2.2266-0.16016-0.14062-0.34375-0.25781-0.53906-0.35938v-2.332c0-0.86328-0.69922-1.5625-1.5625-1.5625s-1.5625 0.69922-1.5625 1.5625v2.3164c-0.8125 0.42188-1.4453 1.2344-1.4453 2.6016v30.559c0 0.94531-0.76562 1.7148-1.7148 1.7148-0.94531 0-1.7148-0.76562-1.7148-1.7148v-3.3906l-3.1562 1.3555c-1.1562 0.49609-2.3398 1.4219-2.3398 4.5469v8.0703c0 7.7617 2.3984 11.859 9.4961 16.242 0.50391 0.3125 0.8125 0.86328 0.8125 1.4609v6.1836s-0.48047 2.7344 2.125 2.7344h21.312c2.6016 0 2.1211-2.7344 2.1211-2.7344v-6.1836c0-0.52344 0.23828-1.0156 0.64844-1.3398 5.207-4.1484 5.582-8.9492 5.582-16.363v-14.902c0.003906-0.98047-0.27344-1.7734-0.79297-2.2969z"/>
 </g>
<text x="0.0" y="117.5" font-size="5.0" font-weight="bold" font-family="Arbeit Regular, Helvetica, Arial-Unicode, Arial, Sans-serif" fill="#000000">Created by Romaldon</text><text x="0.0" y="122.5" font-size="5.0" font-weight="bold" font-family="Arbeit Regular, Helvetica, Arial-Unicode, Arial, Sans-serif" fill="#000000">from Noun Project</text></svg>